<?xml version="1.0" encoding="utf-8"?>
<!-- Generator: Adobe Illustrator 22.0.1, SVG Export Plug-In . SVG Version: 6.00 Build 0)  -->
<svg version="1.1" id="Layer_1" xmlns="http://www.w3.org/2000/svg" xmlns:xlink="http://www.w3.org/1999/xlink" x="0px" y="0px"
	 viewBox="0 0 320 320" style="enable-background:new 0 0 320 320;" xml:space="preserve">
<style type="text/css">
	.st0{fill:url(#SVGID_1_);}
	.st1{fill:url(#SVGID_2_);}
	.st2{fill:url(#SVGID_3_);}
	.st3{fill:url(#SVGID_4_);}
	.st4{fill:url(#SVGID_5_);}
	.st5{fill:url(#SVGID_6_);}
	.st6{fill:url(#SVGID_7_);}
	.st7{fill:url(#SVGID_8_);}
	.st8{fill:url(#SVGID_9_);}
	.st9{fill:url(#SVGID_10_);}
	.st10{fill:url(#SVGID_11_);}
	.st11{fill:url(#SVGID_12_);}
	.st12{fill:url(#SVGID_13_);}
	.st13{fill:url(#SVGID_14_);}
	.st14{fill:url(#SVGID_15_);}
	.st15{fill:url(#SVGID_16_);}
	.st16{fill:url(#SVGID_17_);}
	.st17{fill:url(#SVGID_18_);}
	.st18{fill:url(#SVGID_19_);}
	.st19{fill:url(#SVGID_20_);}
</style>
<g>
	
		<linearGradient id="SVGID_1_" gradientUnits="userSpaceOnUse" x1="49.1257" y1="51.5086" x2="269.4283" y2="271.811" gradientTransform="matrix(1 0 0 -1 0 322)">
		<stop  offset="0" style="stop-color:#0492CF"/>
		<stop  offset="1" style="stop-color:#00FFFF"/>
	</linearGradient>
	<path class="st0" d="M149.1,4.2c6.3,0,12.6,0,19,0c0.3,0.1,0.5,0.2,0.8,0.2c2.8,0.3,5.7,0.5,8.5,0.9c4.5,0.6,8.9,1.4,13.3,2.2
		c2.7,0.5,5.3,1.2,8,1.9c3.9,1.1,7.8,2.3,11.7,3.5c2,0.6,3.9,1.3,5.9,2.1c2.8,1.2,5.6,2.4,8.3,3.7c2,0.9,4,1.8,5.9,2.8
		c2.7,1.4,5.3,2.9,8,4.4c2.6,1.5,5.1,3.1,7.6,4.8c1.1,0.7,2.2,1.5,3.3,2.3c2.2,1.7,4.4,3.4,6.5,5.1c2.1,1.7,4.2,3.3,6.3,5.1
		c1.8,1.6,3.5,3.2,5.1,4.9c2.8,2.8,5.7,5.6,8.4,8.6c2.2,2.4,4.1,4.9,6.1,7.4c2.5,3.2,5,6.4,7.2,9.7c2.5,3.7,4.8,7.5,6.9,11.3
		c2,3.6,3.9,7.4,5.6,11.2c1.3,2.9,2.5,5.8,3.6,8.8c1.1,2.8,2.1,5.5,3,8.4c1.3,4.3,2.5,8.7,3.5,13.1c0.9,3.7,1.6,7.5,2.1,11.3
		c0.6,4,1,8.1,1.2,12.1c0.4,7.7,0.7,15.4-0.4,23.1c-0.5,3.6-0.7,7.3-1.2,10.9c-0.7,4.6-1.5,9.2-2.7,13.7c-1.2,4.9-2.8,9.6-4.3,14.4
		c-0.5,1.6-1,3.3-1.7,4.8c-1.3,3.1-2.7,6.1-4.1,9.2c-0.8,1.9-1.7,3.7-2.7,5.6c-1.3,2.4-2.6,4.8-4,7.2c-1.6,2.8-3.3,5.6-5.1,8.3
		c-2.3,3.3-4.8,6.5-7.3,9.7c-2.4,3-5,6-7.5,8.9c-1.9,2.2-4,4.3-6.1,6.3c-2,2-4.1,4-6.3,5.9c-2,1.7-4,3.3-6.1,4.9
		c-3,2.3-6.1,4.5-9.2,6.6c-2.2,1.6-4.5,3.1-6.8,4.5c-4.4,2.6-8.9,5.1-13.5,7.4c-3.4,1.7-6.9,3.1-10.4,4.5c-3.1,1.2-6.3,2.3-9.5,3.4
		c-2.7,0.9-5.4,1.6-8.1,2.3c-3.1,0.8-6.2,1.6-9.4,2.1c-4.4,0.7-8.8,1.2-13.1,1.7c-2.4,0.3-4.9,0.6-7.3,0.9c-6,0-12,0-18,0
		c-0.9-0.2-1.8-0.5-2.6-0.6c-3.9-0.5-7.8-0.7-11.6-1.3c-4.2-0.6-8.3-1.5-12.4-2.4c-2.8-0.6-5.6-1.3-8.4-2.2
		c-4.6-1.5-9.1-3.1-13.6-4.7c-3.2-1.2-6.3-2.5-9.4-4c-3-1.5-6-3.2-8.9-4.9c-3.1-1.8-6.3-3.6-9.3-5.7c-3.7-2.5-7.4-5.1-11-7.9
		c-3.5-2.8-6.9-5.8-10.3-8.8c-2.2-2-4.3-4.1-6.3-6.2c-1.7-1.7-3.2-3.5-4.8-5.4s-3.2-3.8-4.7-5.8c-1.8-2.3-3.5-4.5-5.2-6.9
		c-1.3-1.9-2.6-3.8-3.8-5.7c-2.1-3.4-4.3-6.8-6.2-10.4c-1.5-2.7-2.7-5.5-4-8.2c-1.4-2.9-2.7-5.9-3.9-8.9s-2.3-6.2-3.3-9.3
		c-0.9-2.7-1.6-5.5-2.3-8.2c-0.8-3-1.6-6.1-2.1-9.2c-0.7-4.2-1.2-8.5-1.8-12.8c-0.3-2.5-0.6-5-0.9-7.5c0-6.2,0-12.5,0-18.7
		c0.2-1,0.6-1.9,0.6-2.9c0.4-6,1.1-12,2.5-17.9c0.8-3.4,1.5-6.9,2.4-10.3c1-3.8,2.2-7.5,3.5-11.1c0.9-2.5,1.9-5,2.9-7.5
		c1.3-3.1,2.6-6.1,4-9.1c0.8-1.8,1.7-3.5,2.6-5.2c1.3-2.4,2.7-4.7,4.2-7c2.3-3.6,4.5-7.3,7.1-10.7c3.1-4.1,6.4-8,9.7-11.9
		c2.2-2.6,4.5-5.1,7-7.5c3.9-3.6,7.9-7.1,11.9-10.6c1.8-1.6,3.9-3,5.8-4.4c2.4-1.8,4.9-3.6,7.4-5.2c2.1-1.4,4.3-2.7,6.5-3.9
		c3.1-1.8,6.3-3.5,9.4-5.1c2-1,4-1.9,6.1-2.7c3.5-1.4,7-2.9,10.5-4.2c3-1.1,6.1-2.2,9.2-3.1c3-0.9,6-1.7,9.1-2.3
		c3.9-0.8,7.9-1.6,11.9-2.1c2.9-0.4,5.9-0.5,8.8-0.9C147.2,4.8,148.2,4.5,149.1,4.2z M194.4,106c0,32.7,0,65.3,0,98.1
		c6.9,0,13.9,0,21,0c0,0.7,0,1.2,0,1.7c0,3.6,0,7.3,0,10.9c0,1.2-0.4,1.4-1.4,1.4c-6.8,0-13.6,0-20.4,0c-9.5,0-19,0-28.6,0
		c-2.6,0-2.5,0-2.4-2.6c0-0.7,0.3-1,1-1c0.6,0,1.2,0,1.8,0c8,0,16.1,0,24.1,0c1,0,1.4-0.3,1.3-1.3c-0.1-1,0-2.1,0-3.1
		c0-34.8,0-69.7,0-104.5c0-3,0-5.9,0-8.9c0-0.9-0.3-1.3-1.3-1.2c-3.4,0.1-6.9,0-10.3,0c-16.6,0-33.3,0-49.9,0c-1.7,0-1.7,0-1.7,1.6
		c0,5.2,0,10.3,0,15.5c0,28.7,0,57.4,0,86.2c0,0.4-0.1,0.8-0.1,1.3c-1.7-0.6-3.4-2.8-3.4-4.2c0-18.5,0-37,0-55.6
		c0-9.7,0-19.4,0-29.2c0-1.7,0-3.3,0-5.1c-1,0-1.8,0-2.7,0c-14.9,0-29.8,0-44.8,0c-1.5,0-1.6,0-1.6,1.6c0,31.7,0,63.4,0,95.1
		c0,0.4,0,0.8,0.1,1.4c0.8,0,1.5,0,2.1,0c5.8,0,11.6,0,17.4,0c1.1,0,1.4,0.3,1.4,1.3c0,6.1,0,12.2,0,18.2c0,1,0.3,1.4,1.3,1.4
		c13,0,26.1,0,39.1,0c28.1,0,56.2,0,84.4,0c1.1,0,1.4-0.4,1.4-1.4c0-6,0-12,0-18c0-1.5,0-1.5,1.5-1.5c5.9,0,11.8,0,17.6,0
		c0.5,0,1.1-0.1,1.6-0.1c0-32.7,0-65.3,0-98C226.8,106,210.7,106,194.4,106z"/>
	
		<linearGradient id="SVGID_2_" gradientUnits="userSpaceOnUse" x1="112.7071" y1="94.2929" x2="140.5473" y2="122.1331" gradientTransform="matrix(1 0 0 -1 0 322)">
		<stop  offset="0" style="stop-color:#0492CF"/>
		<stop  offset="1" style="stop-color:#00FFFF"/>
	</linearGradient>
	<path class="st1" d="M103.1,218.1c0-4.6,0-9.1,0-13.9c7,0,14,0,21.1,0c0-2.2,0-4.1,0-6c0.2-0.1,0.3-0.2,0.3-0.2
		c1.6,0.5,3.2,2.8,3.2,4.4c0,3.6,0,7.1,0,10.7c0,0.4,0,0.8,0.1,1.3c0.8,0,1.5,0,2.2,0c8.1,0,16.2,0,24.4,0c1.2,0,1.5,0.4,1.5,1.5
		c-0.1,2.2,0.4,2.1-2.1,2.1c-12.3,0-24.6,0-36.8,0c-4.1,0-8.2,0-12.2,0C104.1,218.1,103.6,218.1,103.1,218.1z"/>
	
		<linearGradient id="SVGID_3_" gradientUnits="userSpaceOnUse" x1="148.8357" y1="167.2484" x2="169.6047" y2="188.0173" gradientTransform="matrix(1 0 0 -1 0 322)">
		<stop  offset="0" style="stop-color:#0492CF"/>
		<stop  offset="1" style="stop-color:#00FFFF"/>
	</linearGradient>
	<path class="st2" d="M159.1,148c-5.4,0-10.8,0-16.2,0c-1.1,0-1.5-0.3-1.4-1.4c0.1-1.6,0.1-3.1,0-4.7c0-0.7,0.3-1,0.9-1
		c0.9,0,1.8,0,2.6,0c10.1,0,20.1,0,30.2,0c1.7,0,1.7,0,1.7,1.7c0,1.3-0.1,2.6,0,3.9c0.1,1.1-0.3,1.5-1.4,1.5
		C170,147.9,164.5,147.9,159.1,148C159.1,147.9,159.1,148,159.1,148z"/>
	
		<linearGradient id="SVGID_4_" gradientUnits="userSpaceOnUse" x1="148.9463" y1="146.1963" x2="169.6572" y2="166.9072" gradientTransform="matrix(1 0 0 -1 0 322)">
		<stop  offset="0" style="stop-color:#0492CF"/>
		<stop  offset="1" style="stop-color:#00FFFF"/>
	</linearGradient>
	<path class="st3" d="M176.6,169c-3.6,0-6.9,0-10.2,0c-7.8,0-15.6,0-23.4,0c-1,0-1.5-0.3-1.5-1.3c0-1.5,0-3.1,0-4.6
		c0-0.9,0.4-1.4,1.5-1.4c10.8,0,21.5,0,32.3,0c1.5,0,1.8,0.4,1.6,2c-0.1,0.8,0.1,1.7,0.1,2.6C176.9,167.1,176.7,168,176.6,169z"/>
	
		<linearGradient id="SVGID_5_" gradientUnits="userSpaceOnUse" x1="148.6403" y1="114.4597" x2="169.5092" y2="135.3286" gradientTransform="matrix(1 0 0 -1 0 322)">
		<stop  offset="0" style="stop-color:#0492CF"/>
		<stop  offset="1" style="stop-color:#00FFFF"/>
	</linearGradient>
	<path class="st4" d="M141.6,200.5c0-2.2,0-4.3,0-6.4c0-0.3,0.6-0.6,0.9-0.7c0.7-0.1,1.4,0,2,0c10.2,0,20.4,0,30.6,0
		c1.5,0,1.6,0.1,1.6,1.5c0,1.6-0.1,3.2-0.1,4.8c0,0.6-0.2,0.9-0.9,0.9c-11.1,0-22.2,0-33.3,0C142.3,200.6,142.1,200.6,141.6,200.5z"
		/>
	
		<linearGradient id="SVGID_6_" gradientUnits="userSpaceOnUse" x1="148.7507" y1="156.6493" x2="169.4757" y2="177.3743" gradientTransform="matrix(1 0 0 -1 0 322)">
		<stop  offset="0" style="stop-color:#0492CF"/>
		<stop  offset="1" style="stop-color:#00FFFF"/>
	</linearGradient>
	<path class="st5" d="M141.7,158.3c0-2.2,0-4.3,0.1-6.4c0-0.2,0.7-0.6,1.1-0.6c3-0.1,6.1,0,9.1,0c7.8,0,15.6,0,23.4,0
		c1,0,1.3,0.3,1.3,1.3c-0.1,1.5-0.1,3,0,4.6c0,1.1-0.5,1.2-1.4,1.2c-8.8,0-17.7,0-26.5,0C146.5,158.3,144.3,158.3,141.7,158.3z"/>
	
		<linearGradient id="SVGID_7_" gradientUnits="userSpaceOnUse" x1="148.9334" y1="125.2916" x2="169.449" y2="145.8072" gradientTransform="matrix(1 0 0 -1 0 322)">
		<stop  offset="0" style="stop-color:#0492CF"/>
		<stop  offset="1" style="stop-color:#00FFFF"/>
	</linearGradient>
	<path class="st6" d="M159.1,190c-5.3,0-10.6,0-15.9,0c-1.3,0-1.6-0.3-1.6-1.6c0.1-1.4,0.2-2.9,0.2-4.3c0-1.1,0.5-1.2,1.4-1.2
		c5.2,0,10.3,0,15.5,0c5.5,0,11,0,16.5,0c1.1,0,1.6,0.2,1.5,1.4c-0.1,1.4,0,2.9,0,4.3c0,1-0.4,1.4-1.4,1.4
		C169.9,190,164.5,190,159.1,190z"/>
	
		<linearGradient id="SVGID_8_" gradientUnits="userSpaceOnUse" x1="211.6653" y1="170.6956" x2="225.6653" y2="184.6956" gradientTransform="matrix(1 0 0 -1 0 322)">
		<stop  offset="0" style="stop-color:#0492CF"/>
		<stop  offset="1" style="stop-color:#00FFFF"/>
	</linearGradient>
	<path class="st7" d="M208.2,147.9c0-2.4,0-4.6,0-6.9c7,0,14,0,21.1,0c0,2.1,0,4.2,0,6.3c0,0.2-0.4,0.6-0.7,0.6
		C221.8,147.9,215.1,147.9,208.2,147.9z"/>
	
		<linearGradient id="SVGID_9_" gradientUnits="userSpaceOnUse" x1="211.7258" y1="160.2259" x2="225.6409" y2="174.1409" gradientTransform="matrix(1 0 0 -1 0 322)">
		<stop  offset="0" style="stop-color:#0492CF"/>
		<stop  offset="1" style="stop-color:#00FFFF"/>
	</linearGradient>
	<path class="st8" d="M208.2,158.2c0-2.3,0-4.5,0-6.8c7,0,13.9,0,21,0c0,2.2,0,4.5,0,6.8C222.3,158.2,215.3,158.2,208.2,158.2z"/>
	
		<linearGradient id="SVGID_10_" gradientUnits="userSpaceOnUse" x1="92.7554" y1="139.0446" x2="106.5643" y2="152.8537" gradientTransform="matrix(1 0 0 -1 0 322)">
		<stop  offset="0" style="stop-color:#0492CF"/>
		<stop  offset="1" style="stop-color:#00FFFF"/>
	</linearGradient>
	<path class="st9" d="M89.1,179.3c0-2,0-4.1,0-6.1c0-0.9,0.7-0.7,1.2-0.7c5.2,0,10.4,0,15.6,0c1.1,0,2.2,0,3.4,0
		c0.7,0,1.1,0.2,1.1,1c-0.1,1.7,0,3.4,0,5c0,0.6-0.1,1-0.8,1c-6.6,0-13.3,0-19.9,0C89.4,179.4,89.4,179.4,89.1,179.3z"/>
	
		<linearGradient id="SVGID_11_" gradientUnits="userSpaceOnUse" x1="211.75" y1="139.05" x2="225.5026" y2="152.8027" gradientTransform="matrix(1 0 0 -1 0 322)">
		<stop  offset="0" style="stop-color:#0492CF"/>
		<stop  offset="1" style="stop-color:#00FFFF"/>
	</linearGradient>
	<path class="st10" d="M208.2,179.4c0-2.3,0-4.6,0-6.9c0.5,0,1-0.1,1.5-0.1c6.1,0,12.1,0,18.2,0c1.2,0,1.5,0.4,1.4,1.5
		c-0.1,1.8,0,3.6,0,5.5C222.2,179.4,215.3,179.4,208.2,179.4z"/>
	
		<linearGradient id="SVGID_12_" gradientUnits="userSpaceOnUse" x1="211.6114" y1="128.5886" x2="225.6336" y2="142.6109" gradientTransform="matrix(1 0 0 -1 0 322)">
		<stop  offset="0" style="stop-color:#0492CF"/>
		<stop  offset="1" style="stop-color:#00FFFF"/>
	</linearGradient>
	<path class="st11" d="M208.2,190c0-2.4,0-4.6,0-6.9c7,0,14,0,21.1,0c0,2.1,0,4.3-0.1,6.4c0,0.2-0.8,0.5-1.2,0.5
		c-4.2,0-8.4,0-12.6,0C213.1,190,210.7,190,208.2,190z"/>
	
		<linearGradient id="SVGID_13_" gradientUnits="userSpaceOnUse" x1="92.7543" y1="170.5946" x2="106.7043" y2="184.5446" gradientTransform="matrix(1 0 0 -1 0 322)">
		<stop  offset="0" style="stop-color:#0492CF"/>
		<stop  offset="1" style="stop-color:#00FFFF"/>
	</linearGradient>
	<path class="st12" d="M110.2,140.9c0,2.3,0,4.5,0,6.8c-7,0-14,0-21.1,0c0-2.1,0-4.2,0-6.3c0-0.2,0.6-0.6,0.9-0.6
		c1.3-0.1,2.5,0,3.8,0c5.1,0,10.1,0,15.2,0C109.4,140.8,109.8,140.9,110.2,140.9z"/>
	
		<linearGradient id="SVGID_14_" gradientUnits="userSpaceOnUse" x1="92.8375" y1="160.4375" x2="106.3576" y2="173.9575" gradientTransform="matrix(1 0 0 -1 0 322)">
		<stop  offset="0" style="stop-color:#0492CF"/>
		<stop  offset="1" style="stop-color:#00FFFF"/>
	</linearGradient>
	<path class="st13" d="M89.1,151.3c5.2,0,10.2,0,15.2,0c1.7,0,3.4,0,5,0c0.3,0,0.9,0.4,0.9,0.7c0.1,2,0,4.1,0,6.2
		c-0.5,0-0.9,0.1-1.4,0.1c-6.1,0-12.3,0-18.4,0c-1.1,0-1.4-0.3-1.4-1.4C89.2,155.1,89.1,153.3,89.1,151.3z"/>
	
		<linearGradient id="SVGID_15_" gradientUnits="userSpaceOnUse" x1="92.8915" y1="128.7415" x2="106.4604" y2="142.3104" gradientTransform="matrix(1 0 0 -1 0 322)">
		<stop  offset="0" style="stop-color:#0492CF"/>
		<stop  offset="1" style="stop-color:#00FFFF"/>
	</linearGradient>
	<path class="st14" d="M89.1,183c1.6,0,3.1,0,4.5,0c5.1,0,10.1,0,15.2,0c1.1,0,1.5,0.3,1.4,1.5c-0.1,1.8,0,3.6,0,5.5
		c-0.4,0-0.8,0.1-1.1,0.1c-6.2,0-12.4,0-18.6,0c-1.2,0-1.6-0.4-1.5-1.6C89.2,186.7,89.1,184.9,89.1,183z"/>
	
		<linearGradient id="SVGID_16_" gradientUnits="userSpaceOnUse" x1="211.8833" y1="149.7332" x2="225.506" y2="163.356" gradientTransform="matrix(1 0 0 -1 0 322)">
		<stop  offset="0" style="stop-color:#0492CF"/>
		<stop  offset="1" style="stop-color:#00FFFF"/>
	</linearGradient>
	<path class="st15" d="M208.1,162.1c0.6-0.1,1.2-0.2,1.7-0.2c4.9,0,9.8,0.1,14.7,0.1c1.3,0,2.5-0.2,3.8-0.2c0.3,0,0.9,0.5,0.9,0.7
		c0.1,2.1,0,4.2,0,6.4c-0.6,0-1.1,0.1-1.6,0.1c-6.1,0-12.1,0-18.2,0c-1,0-1.4-0.2-1.4-1.3C208.2,165.9,208.1,164,208.1,162.1z"/>
	
		<linearGradient id="SVGID_17_" gradientUnits="userSpaceOnUse" x1="92.8306" y1="149.6806" x2="106.4442" y2="163.2941" gradientTransform="matrix(1 0 0 -1 0 322)">
		<stop  offset="0" style="stop-color:#0492CF"/>
		<stop  offset="1" style="stop-color:#00FFFF"/>
	</linearGradient>
	<path class="st16" d="M89.1,162c1.8,0,3.4,0,5,0c4.7,0,9.4,0,14.2,0c2,0,2,0,2,2c0,1.6,0,3.2,0,4.9c-0.4,0-0.8,0.1-1.2,0.1
		c-6.3,0-12.6,0-18.8,0c-0.9,0-1.2-0.2-1.2-1.1C89.1,165.9,89.1,163.9,89.1,162z"/>
	
		<linearGradient id="SVGID_18_" gradientUnits="userSpaceOnUse" x1="167.2659" y1="208.3158" x2="175.6427" y2="216.6927" gradientTransform="matrix(1 0 0 -1 0 322)">
		<stop  offset="0" style="stop-color:#0492CF"/>
		<stop  offset="1" style="stop-color:#00FFFF"/>
	</linearGradient>
	<path class="st17" d="M171.4,105.9c1.4,0,2.9,0,4.3,0c0.6,0,1,0.2,1,0.9c0,1.8,0,3.5,0,5.3c0,0.7-0.3,0.9-0.9,0.9
		c-2.9,0-5.8,0-8.6,0c-0.6,0-1-0.2-0.9-0.9c0-1.8,0-3.5,0-5.3c0-0.7,0.3-0.9,0.9-0.9C168.5,106,169.9,105.9,171.4,105.9L171.4,105.9
		z"/>
	
		<linearGradient id="SVGID_19_" gradientUnits="userSpaceOnUse" x1="102.7749" y1="198.3664" x2="109.8683" y2="205.4598" gradientTransform="matrix(1 0 0 -1 0 322)">
		<stop  offset="0" style="stop-color:#0492CF"/>
		<stop  offset="1" style="stop-color:#00FFFF"/>
	</linearGradient>
	<path class="st18" d="M110.3,123.3c-2.7,0-5.2,0-7.8,0c0-2.2,0-4.3,0-6.5c0-0.2,0.5-0.5,0.7-0.5c2.1,0,4.1-0.1,6.2,0
		c0.3,0,0.8,0.5,0.8,0.7C110.3,119.1,110.3,121.2,110.3,123.3z"/>
	
		<linearGradient id="SVGID_20_" gradientUnits="userSpaceOnUse" x1="222.1134" y1="198.5384" x2="228.9972" y2="205.4223" gradientTransform="matrix(1 0 0 -1 0 322)">
		<stop  offset="0" style="stop-color:#0492CF"/>
		<stop  offset="1" style="stop-color:#00FFFF"/>
	</linearGradient>
	<path class="st19" d="M229.3,123.4c-2.5,0-4.9,0-7.2,0c-0.2,0-0.6-0.4-0.6-0.7c0-1.9-0.1-3.8,0-5.6c0-0.2,0.5-0.7,0.7-0.7
		c2.1-0.1,4.2-0.1,6.4,0c0.2,0,0.7,0.4,0.7,0.7C229.3,119.1,229.3,121.1,229.3,123.4z"/>
</g>
</svg>
