<?xml version="1.0" encoding="utf-8"?>
<!-- Generator: Adobe Illustrator 22.0.1, SVG Export Plug-In . SVG Version: 6.00 Build 0)  -->
<svg version="1.1" id="Layer_1" xmlns="http://www.w3.org/2000/svg" xmlns:xlink="http://www.w3.org/1999/xlink" x="0px" y="0px"
	 viewBox="0 0 320 320" style="enable-background:new 0 0 320 320;" xml:space="preserve">
<style type="text/css">
	.st0{fill:url(#SVGID_1_);}
	.st1{fill:url(#SVGID_2_);}
	.st2{fill:url(#SVGID_3_);}
</style>
<g>
	
		<linearGradient id="SVGID_1_" gradientUnits="userSpaceOnUse" x1="106.525" y1="106.975" x2="216.175" y2="216.625" gradientTransform="matrix(1 0 0 -1 0 322)">
		<stop  offset="0" style="stop-color:#0492CF"/>
		<stop  offset="1" style="stop-color:#00FFFF"/>
	</linearGradient>
	<path class="st0" d="M210.1,99.3c-36.5,36.5-73.1,73.1-109.6,109.6c4,4,8.1,8.2,12.1,12.2c36.5-36.5,73.1-73.1,109.6-109.6
		C218.3,107.5,214.1,103.3,210.1,99.3z"/>
	
		<linearGradient id="SVGID_2_" gradientUnits="userSpaceOnUse" x1="47.65" y1="48.25" x2="273.95" y2="274.55" gradientTransform="matrix(1 0 0 -1 0 322)">
		<stop  offset="0" style="stop-color:#0492CF"/>
		<stop  offset="1" style="stop-color:#00FFFF"/>
	</linearGradient>
	<path class="st1" d="M160.8,0.6c-88.4,0-160,71.6-160,160s71.6,160,160,160s160-71.6,160-160S249.2,0.6,160.8,0.6z M111.6,229
		c-6.4,1.9-12.8,3.5-19.2,5.2c-3.9,1-5.9-1-4.9-5c1.9-7.4,3.9-14.9,6-22.3c0.3-1.2,1.2-2.3,2.2-3.3c12.5-12.5,25-25,37.5-37.6
		c0.4-0.4,0.8-0.9,1.3-1.5c-17.4-17.4-34.8-34.7-52.1-52C92.6,102.4,102.7,92.3,113,82c17.3,17.3,34.6,34.7,52.1,52.2
		c4.8-4.9,9.5-9.6,14.2-14.4c9.4-9.5,18.9-18.9,28.3-28.3c8.8-8.8,23.5-5,26.7,7c1.5,5.6,0.2,10.8-3.9,14.9
		c-37.5,37.6-75,75.1-112.7,112.6C116.2,227.6,113.8,228.3,111.6,229z M209.1,239.1c-16.5-16.5-32.9-33-49.4-49.5
		c1.5-1.5,3.1-3.1,4.7-4.7c14.9,14.9,29.7,29.8,44.9,45c6.7-7.2,13.3-14.3,19.9-21.4c0.3,0.2,0.5,0.4,0.8,0.5
		c-0.5-0.5-1-1.1-1.7-1.8c-1.4,1.4-2.8,2.6-4.1,3.9c-1.5-1.6-3-3.2-4.9-5.2c1.3-1,2.9-2,4.5-3.2c-2.1-1.9-3.6-3.3-5.2-4.8
		c-2.1,2.2-4.4,4.7-6.8,7.1c-1.9-2-3.4-3.6-5.1-5.4c2.3-2.1,4.8-4.4,7.3-6.8c-1.9-1.8-3.4-3.4-5.3-5.2c-1.2,1.4-2.3,2.9-3.5,4.4
		c-1.9-1.9-3.4-3.4-5-5c1.3-1.3,2.5-2.7,3.9-4c-1.6-1.5-3-2.9-4.6-4.4c-2.1,2.3-4.4,4.7-6.7,7.3c-1.8-2.2-3.3-3.9-4.9-5.9
		c1.9-1.8,4.4-4,6.9-6.3c-1.9-1.7-3.5-3.2-5.4-4.9c-0.9,1.1-2.1,2.6-3.3,4c-1.8-1.9-3.3-3.4-4.6-4.7c2.7-3.1,5.5-6.3,8-9.2
		c17,16.9,33.5,33.4,49.9,49.9C229.3,218.9,219.2,229,209.1,239.1z"/>
	
		<linearGradient id="SVGID_3_" gradientUnits="userSpaceOnUse" x1="115.6832" y1="186.4331" x2="136.1563" y2="206.9062" gradientTransform="matrix(1 0 0 -1 0 322)">
		<stop  offset="0" style="stop-color:#0492CF"/>
		<stop  offset="6.153768e-02" style="stop-color:#0499D2"/>
		<stop  offset="0.7027" style="stop-color:#01E2F2"/>
		<stop  offset="1" style="stop-color:#00FFFF"/>
	</linearGradient>
	<path class="st2" d="M156,142.6c-1.2-1-2.6-2.2-4-3.4c1.5-1.6,2.7-2.9,3.8-4.1c-1.6-1.7-3-3.2-4.8-5c-2.4,2.5-4.7,5-6.7,7.2
		c-1.8-1.6-3.4-3.1-5.2-4.8c2.5-2.4,4.9-4.6,7.2-6.7c-1.7-1.7-3.3-3.3-5.2-5.2c-1.1,1.3-2.2,2.7-3.2,3.8c-1.7-1.7-3.3-3.2-5.4-5.2
		c1.4-1.1,2.9-2.1,4.1-3c-1.7-1.9-3.1-3.4-4.9-5.3c-2.3,2.6-4.5,5.1-6.5,7.4c-1.9-1.8-3.5-3.3-5.5-5.1c2.4-2.2,4.9-4.5,7.2-6.6
		c-1.7-1.8-3.2-3.3-5-5.3c-1.1,1.4-2.2,2.8-3.2,4c-1.8-1.8-3.4-3.3-5-4.8c1.2-1.3,2.5-2.6,3.7-3.9c-1.7-1.7-3.1-3.2-5-5.1
		c-6.7,7.1-13.4,14.2-19.8,21.1c15.4,15.4,31.2,31.2,46.7,46.7C144.7,153.8,150.2,148.4,156,142.6z"/>
</g>
</svg>
