<?xml version="1.0" encoding="utf-8"?>
<!-- Generator: Adobe Illustrator 22.0.1, SVG Export Plug-In . SVG Version: 6.00 Build 0)  -->
<svg version="1.1" id="Layer_1" xmlns="http://www.w3.org/2000/svg" xmlns:xlink="http://www.w3.org/1999/xlink" x="0px" y="0px"
	 viewBox="0 0 320 320" style="enable-background:new 0 0 320 320;" xml:space="preserve">
<style type="text/css">
	.st0{fill:url(#SVGID_1_);}
	.st1{fill:url(#SVGID_2_);}
	.st2{fill:url(#SVGID_3_);}
	.st3{fill:url(#SVGID_4_);}
</style>
<g>
	
		<linearGradient id="SVGID_1_" gradientUnits="userSpaceOnUse" x1="216.4071" y1="163.0571" x2="243.8538" y2="190.5038" gradientTransform="matrix(1 0 0 -1 0 322)">
		<stop  offset="0" style="stop-color:#0492CF"/>
		<stop  offset="1" style="stop-color:#00FFFF"/>
	</linearGradient>
	<polygon class="st0" points="249.6,137.2 245.4,133 222.2,156.2 214.9,148.9 210.6,153.2 222.2,164.7 	"/>
	
		<linearGradient id="SVGID_2_" gradientUnits="userSpaceOnUse" x1="76.4128" y1="163.0628" x2="103.8596" y2="190.5096" gradientTransform="matrix(1 0 0 -1 0 322)">
		<stop  offset="0" style="stop-color:#0492CF"/>
		<stop  offset="1" style="stop-color:#00FFFF"/>
	</linearGradient>
	<polygon class="st1" points="109.6,137.2 105.4,133 82.2,156.2 74.9,148.9 70.6,153.2 82.2,164.7 	"/>
	
		<linearGradient id="SVGID_3_" gradientUnits="userSpaceOnUse" x1="142.5853" y1="160.2853" x2="177.6434" y2="195.3435" gradientTransform="matrix(1 0 0 -1 0 322)">
		<stop  offset="0" style="stop-color:#0492CF"/>
		<stop  offset="1" style="stop-color:#00FFFF"/>
	</linearGradient>
	<polygon class="st2" points="185,134 179.6,128.6 150,158.3 140.6,148.9 135.2,154.4 150,169.1 	"/>
	
		<linearGradient id="SVGID_4_" gradientUnits="userSpaceOnUse" x1="46.9593" y1="47.8407" x2="273.2594" y2="274.1406" gradientTransform="matrix(1 0 0 -1 0 322)">
		<stop  offset="0" style="stop-color:#0492CF"/>
		<stop  offset="1" style="stop-color:#00FFFF"/>
	</linearGradient>
	<path class="st3" d="M160.1,1C71.8,1,0.1,72.6,0.1,161s71.6,160,160,160s160-71.6,160-160S248.5,1,160.1,1z M122,225.4H58.2V96.6
		H122V225.4z M194,232.7h-67.7V89.2H194V232.7z M262,225.4h-63.8V96.6H262V225.4z"/>
</g>
</svg>
