<?xml version="1.0" encoding="utf-8"?>
<!-- Generator: Adobe Illustrator 22.0.1, SVG Export Plug-In . SVG Version: 6.00 Build 0)  -->
<svg version="1.1" id="Layer_1" xmlns="http://www.w3.org/2000/svg" xmlns:xlink="http://www.w3.org/1999/xlink" x="0px" y="0px"
	 viewBox="0 0 320 320" style="enable-background:new 0 0 320 320;" xml:space="preserve">
<style type="text/css">
	.st0{fill:url(#SVGID_1_);}
	.st1{fill:url(#SVGID_2_);}
</style>
<g>
	
		<linearGradient id="SVGID_1_" gradientUnits="userSpaceOnUse" x1="119.025" y1="105.725" x2="200.5937" y2="187.2938" gradientTransform="matrix(1 0 0 -1 0 322)">
		<stop  offset="0" style="stop-color:#0492CF"/>
		<stop  offset="1" style="stop-color:#00FFFF"/>
	</linearGradient>
	<path class="st0" d="M159.8,117.8c-31.8,0-57.7,25.9-57.7,57.7s25.9,57.7,57.7,57.7s57.7-25.9,57.7-57.7
		C217.5,143.6,191.6,117.8,159.8,117.8z M134.9,217l20.1-36h-22.4l52.1-47l-21.1,37.4h23.2L134.9,217z"/>
	
		<linearGradient id="SVGID_2_" gradientUnits="userSpaceOnUse" x1="46.85" y1="48.45" x2="273.15" y2="274.75" gradientTransform="matrix(1 0 0 -1 0 322)">
		<stop  offset="0" style="stop-color:#0492CF"/>
		<stop  offset="1" style="stop-color:#00FFFF"/>
	</linearGradient>
	<path class="st1" d="M160,0.4C71.6,0.4,0,72,0,160.4s71.6,160,160,160s160-71.6,160-160S248.4,0.4,160,0.4z M137.3,56.9h44.9v22.4
		H171v11.2h-22.4V79.3h-11.2V56.9H137.3z M91,91.2l14.3,14.3L91,119.9l-14.3-14.3L91,91.2z M159.8,253.5c-43,0-78-35-78-78
		s35-78,78-78s78,35,78,78S202.8,253.5,159.8,253.5z M229,119.9l-14.3-14.3L229,91.2l14.3,14.3L229,119.9z"/>
</g>
</svg>
