<?xml version="1.0" encoding="utf-8"?>
<!-- Generator: Adobe Illustrator 22.0.1, SVG Export Plug-In . SVG Version: 6.00 Build 0)  -->
<svg version="1.1" id="Layer_1" xmlns="http://www.w3.org/2000/svg" xmlns:xlink="http://www.w3.org/1999/xlink" x="0px" y="0px"
	 viewBox="0 0 320 320" style="enable-background:new 0 0 320 320;" xml:space="preserve">
<style type="text/css">
	.st0{fill:url(#SVGID_1_);}
	.st1{fill:url(#SVGID_2_);}
	.st2{fill:url(#SVGID_3_);}
	.st3{fill:url(#SVGID_4_);}
	.st4{fill:url(#SVGID_5_);}
	.st5{fill:url(#SVGID_6_);}
	.st6{fill:url(#SVGID_7_);}
	.st7{fill:url(#SVGID_8_);}
	.st8{fill:url(#SVGID_9_);}
	.st9{fill:url(#SVGID_10_);}
</style>
<g>
	
		<linearGradient id="SVGID_1_" gradientUnits="userSpaceOnUse" x1="163.6975" y1="109.6976" x2="196.1296" y2="142.1296" gradientTransform="matrix(1 0 0 -1 0 322)">
		<stop  offset="0" style="stop-color:#0492CF"/>
		<stop  offset="1" style="stop-color:#00FFFF"/>
	</linearGradient>
	<path class="st0" d="M184.3,168v16.5c3.8,1.7,6.3,5.5,6.3,9.7c0,5.9-4.8,10.7-10.7,10.7s-10.7-4.8-10.7-10.7c0-4.2,2.5-8,6.3-9.7
		V168l-20.8,31.3c-0.4,0.7-0.4,1.5,0.1,2.1l5.5,7.3c0.3,0,0.6-0.1,0.9-0.1h37.7c0.3,0,0.6,0,0.9,0.1l5.5-7.3
		c0.5-0.6,0.5-1.5,0.1-2.1L184.3,168z"/>
	
		<linearGradient id="SVGID_2_" gradientUnits="userSpaceOnUse" x1="178.5333" y1="126.4647" x2="181.1532" y2="129.0846" gradientTransform="matrix(1 0 0 -1 0 322)">
		<stop  offset="0" style="stop-color:#0492CF"/>
		<stop  offset="1" style="stop-color:#00FFFF"/>
	</linearGradient>
	<path class="st1" d="M181.7,194.2c0-1-0.8-1.9-1.8-1.9s-1.9,0.8-1.9,1.9c0,1,0.8,1.8,1.9,1.8C180.9,196.1,181.7,195.3,181.7,194.2z
		"/>
	
		<linearGradient id="SVGID_3_" gradientUnits="userSpaceOnUse" x1="159.2" y1="138.5" x2="200.6" y2="179.9" gradientTransform="matrix(1 0 0 -1 0 322)">
		<stop  offset="0" style="stop-color:#0492CF"/>
		<stop  offset="1" style="stop-color:#00FFFF"/>
	</linearGradient>
	<path class="st2" d="M152.9,177.2h5.8l12.3-18.5c2-3,5.3-4.8,8.9-4.8c3.6,0,6.9,1.8,8.9,4.8l12.3,18.5h5.8v-28.8h-54V177.2z"/>
	
		<linearGradient id="SVGID_4_" gradientUnits="userSpaceOnUse" x1="141.8" y1="210.7" x2="151.9125" y2="220.8125" gradientTransform="matrix(1 0 0 -1 0 322)">
		<stop  offset="0" style="stop-color:#0492CF"/>
		<stop  offset="1" style="stop-color:#00FFFF"/>
	</linearGradient>
	<polygon class="st3" points="157,114.4 148.8,98.1 136.7,98.1 144.9,114.4 	"/>
	
		<linearGradient id="SVGID_5_" gradientUnits="userSpaceOnUse" x1="99.7969" y1="200.9719" x2="124.7748" y2="225.9498" gradientTransform="matrix(1 0 0 -1 0 322)">
		<stop  offset="0" style="stop-color:#0492CF"/>
		<stop  offset="1" style="stop-color:#00FFFF"/>
	</linearGradient>
	<path class="st4" d="M126.8,98.1H95c-1,0-1.8,0.8-1.8,1.8v14.4H135L126.8,98.1z"/>
	
		<linearGradient id="SVGID_6_" gradientUnits="userSpaceOnUse" x1="170.3858" y1="74.9108" x2="189.257" y2="93.7819" gradientTransform="matrix(1 0 0 -1 0 322)">
		<stop  offset="0" style="stop-color:#0492CF"/>
		<stop  offset="1" style="stop-color:#00FFFF"/>
	</linearGradient>
	<path class="st5" d="M168.6,244.5c0,1,0.8,1.8,1.8,1.8h18.9c1,0,1.8-0.8,1.8-1.8v-14.4h-22.6v14.4H168.6z"/>
	
		<linearGradient id="SVGID_7_" gradientUnits="userSpaceOnUse" x1="170.15" y1="92.95" x2="189.55" y2="112.35" gradientTransform="matrix(1 0 0 -1 0 322)">
		<stop  offset="0" style="stop-color:#0492CF"/>
		<stop  offset="1" style="stop-color:#00FFFF"/>
	</linearGradient>
	<polygon class="st6" points="162.3,217.5 162.3,221.2 197.4,221.2 197.4,217.5 	"/>
	
		<linearGradient id="SVGID_8_" gradientUnits="userSpaceOnUse" x1="176.3" y1="198.2" x2="214.875" y2="236.775" gradientTransform="matrix(1 0 0 -1 0 322)">
		<stop  offset="0" style="stop-color:#0492CF"/>
		<stop  offset="4.661924e-02" style="stop-color:#03A9D9"/>
		<stop  offset="0.115" style="stop-color:#02C4E5"/>
		<stop  offset="0.1935" style="stop-color:#01DAEF"/>
		<stop  offset="0.2853" style="stop-color:#01EBF6"/>
		<stop  offset="0.3988" style="stop-color:#00F6FB"/>
		<stop  offset="0.558" style="stop-color:#00FDFE"/>
		<stop  offset="1" style="stop-color:#00FFFF"/>
	</linearGradient>
	<path class="st7" d="M227,98.1h-68.2l8.1,16.3h62V100C228.8,98.9,228,98.1,227,98.1z"/>
	
		<linearGradient id="SVGID_9_" gradientUnits="userSpaceOnUse" x1="106.0125" y1="101.6375" x2="215.9875" y2="211.6125" gradientTransform="matrix(1 0 0 -1 0 322)">
		<stop  offset="0" style="stop-color:#0492CF"/>
		<stop  offset="1" style="stop-color:#00FFFF"/>
	</linearGradient>
	<path class="st8" d="M93.2,206.8c0,1,0.8,1.8,1.8,1.8h54l-1.4-1.9c-2.7-3.6-2.9-8.6-0.3-12.4l5.5-8.3h-1.1c-4.2,0-7.6-3.4-7.6-7.6
		V147c0-4.2,3.4-7.6,7.6-7.6h56.6c4.2,0,7.6,3.4,7.6,7.6v31.4c0,4.2-3.4,7.6-7.6,7.6H207l5.5,8.3c2.5,3.8,2.4,8.8-0.3,12.4l-1.4,1.9
		H227c1,0,1.8-0.8,1.8-1.8v-83.6H93.2V206.8z M103.1,139.5H134v8.9h-30.9V139.5z M103.1,152.1H134v8.9h-30.9V152.1z M103.1,164.7
		H134v8.9h-30.9V164.7z M103.1,177.2H134v8.9h-30.9V177.2z"/>
	
		<linearGradient id="SVGID_10_" gradientUnits="userSpaceOnUse" x1="47.8781" y1="48.6594" x2="274.1594" y2="274.9406" gradientTransform="matrix(1 0 0 -1 0 322)">
		<stop  offset="0" style="stop-color:#0492CF"/>
		<stop  offset="1" style="stop-color:#00FFFF"/>
	</linearGradient>
	<path class="st9" d="M161,0.2C72.6,0.2,1,71.9,1,160.2s71.6,160,160,160s160-71.6,160-160S249.4,0.2,161,0.2z M237.7,219.4
		c0,5.9-4.8,10.7-10.7,10.7h-17v-8.9h17c1,0,1.8-0.8,1.8-1.8v-2c-0.6,0.1-1.2,0.2-1.8,0.2h-17v-7.9l-3.9,5.1c0.1,0.5,0.2,1,0.2,1.4
		v6.3c0,3.7-2.7,6.8-6.3,7.5v14.5c0,5.9-4.8,10.7-10.7,10.7h-18.9c-5.9,0-10.7-4.8-10.7-10.7V230c-3.6-0.6-6.3-3.7-6.3-7.5v-6.3
		c0-0.5,0.1-0.9,0.2-1.4l-3.9-5.2v7.9H95c-0.6,0-1.2-0.1-1.8-0.2v2c0,1,0.8,1.8,1.8,1.8h54.7v8.9H95c-5.9,0-10.7-4.8-10.7-10.7V100
		c0-5.9,4.8-10.7,10.7-10.7h132c5.9,0,10.7,4.8,10.7,10.7V219.4z"/>
</g>
</svg>
