<?xml version="1.0" encoding="utf-8"?>
<!-- Generator: Adobe Illustrator 22.0.1, SVG Export Plug-In . SVG Version: 6.00 Build 0)  -->
<svg version="1.1" id="Layer_1" xmlns="http://www.w3.org/2000/svg" xmlns:xlink="http://www.w3.org/1999/xlink" x="0px" y="0px"
	 viewBox="0 0 320 320" style="enable-background:new 0 0 320 320;" xml:space="preserve">
<style type="text/css">
	.st0{fill:url(#SVGID_1_);}
</style>
<linearGradient id="SVGID_1_" gradientUnits="userSpaceOnUse" x1="46.95" y1="48.25" x2="273.25" y2="274.55" gradientTransform="matrix(1 0 0 -1 0 322)">
	<stop  offset="0" style="stop-color:#0492CF"/>
	<stop  offset="1" style="stop-color:#00FFFF"/>
</linearGradient>
<path class="st0" d="M160.1,0.6c-88.4,0-160,71.6-160,160s71.6,160,160,160s160-71.6,160-160S248.5,0.6,160.1,0.6z M237.4,226.7
	c0,5.5-5.5,11.1-11.1,11.1c-22-0.1-44,0-66.1,0c-22,0-44,0-66.1,0c-3.7,0-6.4-1.9-8.7-4.6c-2.1-2.6-2.8-5.8-2.8-9.1
	c0-7.5,0-14.9,0-22.4c0-1.3,0.4-2.2,1.4-3.1c6.8-6.5,13.6-13,20.4-19.6c0.7-0.7,1.2-0.9,2.2-0.4c6.1,2.7,11.9,2,17.2-2.2
	c0.6-0.5,1-0.5,1.7-0.2c5.8,3.3,11.7,6.5,17.6,9.7c0.9,0.5,1.1,1.1,1,2.1c-0.5,7,2.1,12.3,8.2,15.9c6.2,3.6,14.3,2.4,19.4-2.9
	c5-5.2,6.1-13.5,2.2-19.5c-1-1.6-0.9-2.5,0.1-4c6.2-9.3,12.4-18.7,18.5-28c3.1-4.6,6.1-9.2,9.1-13.9c0.5-0.8,0.9-1,1.9-0.8
	c4.6,0.9,8.8,0.1,12.6-2.7c0.8-0.5,1.3-0.5,2,0c6.1,3.9,12.2,7.9,18.3,11.7c0.7,0.4,0.9,0.9,0.9,1.7
	C237.5,172.6,237.5,199.6,237.4,226.7z M237.4,131c0,0.5,0,1,0,1.7c-3.6-2.3-7-4.5-10.4-6.7c-1.4-0.9-3.1-1.5-4.1-2.7s0.1-3,0.1-4.6
	c-0.1-8.8-7.3-15.9-16.1-16c-8.9,0-16.1,7.1-16.2,15.9c0,3.6,0.9,6.8,3,9.7c0.4,0.6,0.4,1,0,1.6c-5.3,7.8-10.4,15.7-15.6,23.5
	c-4.3,6.5-8.6,12.9-12.7,19.5c-0.6,0.9-1.1,1.2-2.2,1c-4.7-0.8-9.1,0.1-12.9,3.1c-0.9,0.8-1.6,0.9-2.7,0.2
	c-5.7-3.2-11.5-6.4-17.3-9.5c-0.7-0.4-0.9-0.7-0.8-1.5c0.7-6.3-1.4-11.5-6.5-15.2c-6-4.5-13.7-3.8-19.1,0.1c-5.5,4-8,11.5-5.7,18
	c0.5,1.5,0.3,2.2-0.8,3.2c-4.8,4.5-9.6,9.2-14.4,13.8c-0.5-0.4-0.3-0.9-0.3-1.4c0-29.3,0-58.6,0-87.8c0-6.7,5-12.6,11.4-13.2
	c0.1,0,0.2-0.2,0.3-0.3c43.7,0,87.5,0,131.2,0c0.7,0.8,1.7,0.3,2.6,0.6c5.4,1.6,9.3,7,9.2,12.5C237.3,108,237.4,119.5,237.4,131z"/>
</svg>
